<svg xmlns="http://www.w3.org/2000/svg" width="1400" height="90" viewBox="0 0 1400 90">
<polygon points="-7.1,0.7 50.3,1.6 4.6,24.9" fill="#dff0ff" opacity="0.85"/>
<polygon points="50.3,1.6 63.6,37.0 4.6,24.9" fill="#9cc7ea" opacity="0.8"/>
<polygon points="50.3,1.6 111.1,-6.5 118.6,31.0" fill="#dceeff" opacity="0.92"/>
<polygon points="50.3,1.6 118.6,31.0 63.6,37.0" fill="#eaf4ff" opacity="0.76"/>
<polygon points="111.1,-6.5 148.4,5.1 167.3,25.7" fill="#bfdcf5" opacity="0.9"/>
<polygon points="111.1,-6.5 167.3,25.7 118.6,31.0" fill="#eaf4ff" opacity="0.79"/>
<polygon points="148.4,5.1 208.9,-4.0 167.3,25.7" fill="#dceeff" opacity="0.85"/>
<polygon points="208.9,-4.0 224.3,31.1 167.3,25.7" fill="#dff0ff" opacity="0.63"/>
<polygon points="208.9,-4.0 282.6,-0.4 224.3,31.1" fill="#eaf4ff" opacity="0.7"/>
<polygon points="282.6,-0.4 263.4,23.5 224.3,31.1" fill="#dceeff" opacity="0.56"/>
<polygon points="282.6,-0.4 332.1,-0.4 332.6,37.3" fill="#dceeff" opacity="0.85"/>
<polygon points="282.6,-0.4 332.6,37.3 263.4,23.5" fill="#aed1ef" opacity="0.81"/>
<polygon points="332.1,-0.4 380.7,-5.2 332.6,37.3" fill="#dceeff" opacity="0.57"/>
<polygon points="380.7,-5.2 365.8,34.5 332.6,37.3" fill="#bfdcf5" opacity="0.6"/>
<polygon points="380.7,-5.2 434.4,5.5 428.4,24.8" fill="#dceeff" opacity="0.97"/>
<polygon points="380.7,-5.2 428.4,24.8 365.8,34.5" fill="#eaf4ff" opacity="0.8"/>
<polygon points="434.4,5.5 485.2,3.6 428.4,24.8" fill="#cfe6fb" opacity="0.92"/>
<polygon points="485.2,3.6 479.1,34.0 428.4,24.8" fill="#bfdcf5" opacity="1.0"/>
<polygon points="485.2,3.6 543.1,-6.5 479.1,34.0" fill="#bfdcf5" opacity="0.75"/>
<polygon points="543.1,-6.5 548.5,23.2 479.1,34.0" fill="#dff0ff" opacity="0.66"/>
<polygon points="543.1,-6.5 599.3,1.4 595.4,23.2" fill="#dff0ff" opacity="0.97"/>
<polygon points="543.1,-6.5 595.4,23.2 548.5,23.2" fill="#dff0ff" opacity="0.98"/>
<polygon points="599.3,1.4 640.8,-7.0 652.0,27.5" fill="#dff0ff" opacity="0.78"/>
<polygon points="599.3,1.4 652.0,27.5 595.4,23.2" fill="#dff0ff" opacity="0.93"/>
<polygon points="640.8,-7.0 709.8,-0.4 652.0,27.5" fill="#cfe6fb" opacity="0.74"/>
<polygon points="709.8,-0.4 710.3,37.2 652.0,27.5" fill="#f4f9ff" opacity="0.62"/>
<polygon points="709.8,-0.4 759.7,5.7 754.0,37.5" fill="#dff0ff" opacity="0.95"/>
<polygon points="709.8,-0.4 754.0,37.5 710.3,37.2" fill="#cfe6fb" opacity="0.62"/>
<polygon points="759.7,5.7 813.5,6.3 802.6,23.7" fill="#f4f9ff" opacity="0.89"/>
<polygon points="759.7,5.7 802.6,23.7 754.0,37.5" fill="#f4f9ff" opacity="0.81"/>
<polygon points="813.5,6.3 858.7,4.5 864.2,23.0" fill="#cfe6fb" opacity="0.61"/>
<polygon points="813.5,6.3 864.2,23.0 802.6,23.7" fill="#bfdcf5" opacity="0.62"/>
<polygon points="858.7,4.5 913.9,6.5 907.2,28.6" fill="#9cc7ea" opacity="0.97"/>
<polygon points="858.7,4.5 907.2,28.6 864.2,23.0" fill="#aed1ef" opacity="0.85"/>
<polygon points="913.9,6.5 979.4,-6.0 907.2,28.6" fill="#dff0ff" opacity="0.82"/>
<polygon points="979.4,-6.0 972.2,24.8 907.2,28.6" fill="#aed1ef" opacity="0.95"/>
<polygon points="979.4,-6.0 1013.3,-4.2 1010.8,35.5" fill="#aed1ef" opacity="0.56"/>
<polygon points="979.4,-6.0 1010.8,35.5 972.2,24.8" fill="#f4f9ff" opacity="0.91"/>
<polygon points="1013.3,-4.2 1089.5,-1.0 1071.9,36.9" fill="#bfdcf5" opacity="0.63"/>
<polygon points="1013.3,-4.2 1071.9,36.9 1010.8,35.5" fill="#9cc7ea" opacity="0.66"/>
<polygon points="1089.5,-1.0 1134.2,-3.0 1071.9,36.9" fill="#f4f9ff" opacity="0.9"/>
<polygon points="1134.2,-3.0 1141.4,28.2 1071.9,36.9" fill="#cfe6fb" opacity="0.74"/>
<polygon points="1134.2,-3.0 1184.8,-1.7 1141.4,28.2" fill="#f4f9ff" opacity="0.87"/>
<polygon points="1184.8,-1.7 1183.5,30.3 1141.4,28.2" fill="#bfdcf5" opacity="0.76"/>
<polygon points="1184.8,-1.7 1234.4,1.3 1183.5,30.3" fill="#eaf4ff" opacity="0.77"/>
<polygon points="1234.4,1.3 1242.3,31.4 1183.5,30.3" fill="#dceeff" opacity="0.94"/>
<polygon points="1234.4,1.3 1294.6,6.1 1293.9,31.8" fill="#dff0ff" opacity="0.9"/>
<polygon points="1234.4,1.3 1293.9,31.8 1242.3,31.4" fill="#eaf4ff" opacity="0.76"/>
<polygon points="1294.6,6.1 1351.1,6.4 1293.9,31.8" fill="#bfdcf5" opacity="0.95"/>
<polygon points="1351.1,6.4 1358.0,30.1 1293.9,31.8" fill="#dceeff" opacity="0.98"/>
<polygon points="1351.1,6.4 1409.6,7.4 1358.0,30.1" fill="#aed1ef" opacity="0.66"/>
<polygon points="1409.6,7.4 1398.1,33.3 1358.0,30.1" fill="#bfdcf5" opacity="0.9"/>
<polygon points="4.6,24.9 63.6,37.0 66.7,60.3" fill="#cfe6fb" opacity="0.63"/>
<polygon points="4.6,24.9 66.7,60.3 -7.1,57.0" fill="#eaf4ff" opacity="0.95"/>
<polygon points="63.6,37.0 118.6,31.0 66.7,60.3" fill="#aed1ef" opacity="0.63"/>
<polygon points="118.6,31.0 109.0,52.7 66.7,60.3" fill="#eaf4ff" opacity="0.69"/>
<polygon points="118.6,31.0 167.3,25.7 109.0,52.7" fill="#dff0ff" opacity="0.59"/>
<polygon points="167.3,25.7 159.3,61.2 109.0,52.7" fill="#dceeff" opacity="0.6"/>
<polygon points="167.3,25.7 224.3,31.1 159.3,61.2" fill="#aed1ef" opacity="0.93"/>
<polygon points="224.3,31.1 202.5,61.7 159.3,61.2" fill="#aed1ef" opacity="0.57"/>
<polygon points="224.3,31.1 263.4,23.5 202.5,61.7" fill="#f4f9ff" opacity="0.81"/>
<polygon points="263.4,23.5 272.8,53.4 202.5,61.7" fill="#9cc7ea" opacity="0.55"/>
<polygon points="263.4,23.5 332.6,37.3 272.8,53.4" fill="#9cc7ea" opacity="0.7"/>
<polygon points="332.6,37.3 326.5,59.5 272.8,53.4" fill="#dff0ff" opacity="0.77"/>
<polygon points="332.6,37.3 365.8,34.5 381.7,57.8" fill="#bfdcf5" opacity="0.84"/>
<polygon points="332.6,37.3 381.7,57.8 326.5,59.5" fill="#f4f9ff" opacity="0.73"/>
<polygon points="365.8,34.5 428.4,24.8 436.3,63.6" fill="#9cc7ea" opacity="0.6"/>
<polygon points="365.8,34.5 436.3,63.6 381.7,57.8" fill="#aed1ef" opacity="0.58"/>
<polygon points="428.4,24.8 479.1,34.0 436.3,63.6" fill="#dff0ff" opacity="0.6"/>
<polygon points="479.1,34.0 471.8,53.4 436.3,63.6" fill="#aed1ef" opacity="0.59"/>
<polygon points="479.1,34.0 548.5,23.2 543.2,66.9" fill="#9cc7ea" opacity="0.86"/>
<polygon points="479.1,34.0 543.2,66.9 471.8,53.4" fill="#9cc7ea" opacity="0.89"/>
<polygon points="548.5,23.2 595.4,23.2 543.2,66.9" fill="#aed1ef" opacity="0.85"/>
<polygon points="595.4,23.2 585.6,59.3 543.2,66.9" fill="#aed1ef" opacity="0.6"/>
<polygon points="595.4,23.2 652.0,27.5 585.6,59.3" fill="#9cc7ea" opacity="0.85"/>
<polygon points="652.0,27.5 648.6,57.3 585.6,59.3" fill="#dceeff" opacity="0.85"/>
<polygon points="652.0,27.5 710.3,37.2 648.6,57.3" fill="#9cc7ea" opacity="0.58"/>
<polygon points="710.3,37.2 696.3,57.2 648.6,57.3" fill="#aed1ef" opacity="0.86"/>
<polygon points="710.3,37.2 754.0,37.5 750.3,61.4" fill="#cfe6fb" opacity="0.84"/>
<polygon points="710.3,37.2 750.3,61.4 696.3,57.2" fill="#cfe6fb" opacity="0.63"/>
<polygon points="754.0,37.5 802.6,23.7 802.3,58.2" fill="#f4f9ff" opacity="0.61"/>
<polygon points="754.0,37.5 802.3,58.2 750.3,61.4" fill="#cfe6fb" opacity="0.96"/>
<polygon points="802.6,23.7 864.2,23.0 802.3,58.2" fill="#dff0ff" opacity="0.8"/>
<polygon points="864.2,23.0 868.9,52.9 802.3,58.2" fill="#cfe6fb" opacity="0.76"/>
<polygon points="864.2,23.0 907.2,28.6 868.9,52.9" fill="#aed1ef" opacity="0.9"/>
<polygon points="907.2,28.6 917.2,63.5 868.9,52.9" fill="#dceeff" opacity="0.6"/>
<polygon points="907.2,28.6 972.2,24.8 917.2,63.5" fill="#cfe6fb" opacity="0.89"/>
<polygon points="972.2,24.8 964.1,55.8 917.2,63.5" fill="#dff0ff" opacity="0.71"/>
<polygon points="972.2,24.8 1010.8,35.5 964.1,55.8" fill="#aed1ef" opacity="0.67"/>
<polygon points="1010.8,35.5 1031.3,56.1 964.1,55.8" fill="#eaf4ff" opacity="0.94"/>
<polygon points="1010.8,35.5 1071.9,36.9 1068.5,59.0" fill="#eaf4ff" opacity="0.77"/>
<polygon points="1010.8,35.5 1068.5,59.0 1031.3,56.1" fill="#aed1ef" opacity="0.66"/>
<polygon points="1071.9,36.9 1141.4,28.2 1136.1,54.0" fill="#9cc7ea" opacity="0.94"/>
<polygon points="1071.9,36.9 1136.1,54.0 1068.5,59.0" fill="#dff0ff" opacity="0.75"/>
<polygon points="1141.4,28.2 1183.5,30.3 1136.1,54.0" fill="#dceeff" opacity="0.71"/>
<polygon points="1183.5,30.3 1179.8,57.5 1136.1,54.0" fill="#dceeff" opacity="0.62"/>
<polygon points="1183.5,30.3 1242.3,31.4 1179.8,57.5" fill="#dceeff" opacity="0.86"/>
<polygon points="1242.3,31.4 1247.4,59.1 1179.8,57.5" fill="#dceeff" opacity="0.63"/>
<polygon points="1242.3,31.4 1293.9,31.8 1247.4,59.1" fill="#bfdcf5" opacity="0.81"/>
<polygon points="1293.9,31.8 1301.9,55.0 1247.4,59.1" fill="#dff0ff" opacity="0.92"/>
<polygon points="1293.9,31.8 1358.0,30.1 1301.9,55.0" fill="#cfe6fb" opacity="0.82"/>
<polygon points="1358.0,30.1 1341.8,62.3 1301.9,55.0" fill="#cfe6fb" opacity="0.94"/>
<polygon points="1358.0,30.1 1398.1,33.3 1410.4,59.3" fill="#bfdcf5" opacity="0.8"/>
<polygon points="1358.0,30.1 1410.4,59.3 1341.8,62.3" fill="#cfe6fb" opacity="0.81"/>
<polygon points="-7.1,57.0 66.7,60.3 54.6,85.4" fill="#bfdcf5" opacity="0.94"/>
<polygon points="-7.1,57.0 54.6,85.4 -7.4,84.3" fill="#9cc7ea" opacity="0.9"/>
<polygon points="66.7,60.3 109.0,52.7 54.6,85.4" fill="#eaf4ff" opacity="0.93"/>
<polygon points="109.0,52.7 116.0,95.1 54.6,85.4" fill="#f4f9ff" opacity="0.95"/>
<polygon points="109.0,52.7 159.3,61.2 153.0,86.7" fill="#dff0ff" opacity="0.69"/>
<polygon points="109.0,52.7 153.0,86.7 116.0,95.1" fill="#aed1ef" opacity="0.84"/>
<polygon points="159.3,61.2 202.5,61.7 223.7,92.1" fill="#aed1ef" opacity="0.95"/>
<polygon points="159.3,61.2 223.7,92.1 153.0,86.7" fill="#f4f9ff" opacity="0.56"/>
<polygon points="202.5,61.7 272.8,53.4 223.7,92.1" fill="#bfdcf5" opacity="0.88"/>
<polygon points="272.8,53.4 277.5,87.7 223.7,92.1" fill="#eaf4ff" opacity="0.6"/>
<polygon points="272.8,53.4 326.5,59.5 277.5,87.7" fill="#bfdcf5" opacity="0.77"/>
<polygon points="326.5,59.5 313.1,86.9 277.5,87.7" fill="#f4f9ff" opacity="0.64"/>
<polygon points="326.5,59.5 381.7,57.8 313.1,86.9" fill="#bfdcf5" opacity="0.57"/>
<polygon points="381.7,57.8 384.8,86.6 313.1,86.9" fill="#f4f9ff" opacity="0.6"/>
<polygon points="381.7,57.8 436.3,63.6 426.6,88.8" fill="#aed1ef" opacity="0.98"/>
<polygon points="381.7,57.8 426.6,88.8 384.8,86.6" fill="#cfe6fb" opacity="0.61"/>
<polygon points="436.3,63.6 471.8,53.4 426.6,88.8" fill="#dceeff" opacity="0.83"/>
<polygon points="471.8,53.4 482.5,88.6 426.6,88.8" fill="#eaf4ff" opacity="0.56"/>
<polygon points="471.8,53.4 543.2,66.9 549.8,84.8" fill="#bfdcf5" opacity="0.78"/>
<polygon points="471.8,53.4 549.8,84.8 482.5,88.6" fill="#f4f9ff" opacity="0.79"/>
<polygon points="543.2,66.9 585.6,59.3 549.8,84.8" fill="#9cc7ea" opacity="0.7"/>
<polygon points="585.6,59.3 579.0,96.6 549.8,84.8" fill="#9cc7ea" opacity="0.86"/>
<polygon points="585.6,59.3 648.6,57.3 579.0,96.6" fill="#cfe6fb" opacity="0.59"/>
<polygon points="648.6,57.3 656.4,97.3 579.0,96.6" fill="#eaf4ff" opacity="0.87"/>
<polygon points="648.6,57.3 696.3,57.2 698.2,96.8" fill="#9cc7ea" opacity="1.0"/>
<polygon points="648.6,57.3 698.2,96.8 656.4,97.3" fill="#bfdcf5" opacity="0.97"/>
<polygon points="696.3,57.2 750.3,61.4 765.4,85.8" fill="#bfdcf5" opacity="0.75"/>
<polygon points="696.3,57.2 765.4,85.8 698.2,96.8" fill="#bfdcf5" opacity="0.77"/>
<polygon points="750.3,61.4 802.3,58.2 765.4,85.8" fill="#dceeff" opacity="0.9"/>
<polygon points="802.3,58.2 814.3,95.1 765.4,85.8" fill="#dff0ff" opacity="0.59"/>
<polygon points="802.3,58.2 868.9,52.9 814.3,95.1" fill="#bfdcf5" opacity="0.87"/>
<polygon points="868.9,52.9 865.9,90.3 814.3,95.1" fill="#dff0ff" opacity="0.77"/>
<polygon points="868.9,52.9 917.2,63.5 865.9,90.3" fill="#dceeff" opacity="0.79"/>
<polygon points="917.2,63.5 909.7,87.6 865.9,90.3" fill="#dff0ff" opacity="0.64"/>
<polygon points="917.2,63.5 964.1,55.8 961.9,83.5" fill="#f4f9ff" opacity="0.69"/>
<polygon points="917.2,63.5 961.9,83.5 909.7,87.6" fill="#f4f9ff" opacity="0.76"/>
<polygon points="964.1,55.8 1031.3,56.1 1025.5,86.8" fill="#dff0ff" opacity="0.75"/>
<polygon points="964.1,55.8 1025.5,86.8 961.9,83.5" fill="#f4f9ff" opacity="0.95"/>
<polygon points="1031.3,56.1 1068.5,59.0 1025.5,86.8" fill="#aed1ef" opacity="0.72"/>
<polygon points="1068.5,59.0 1085.3,83.2 1025.5,86.8" fill="#9cc7ea" opacity="0.75"/>
<polygon points="1068.5,59.0 1136.1,54.0 1141.6,92.9" fill="#9cc7ea" opacity="0.82"/>
<polygon points="1068.5,59.0 1141.6,92.9 1085.3,83.2" fill="#bfdcf5" opacity="0.99"/>
<polygon points="1136.1,54.0 1179.8,57.5 1196.0,95.9" fill="#bfdcf5" opacity="0.67"/>
<polygon points="1136.1,54.0 1196.0,95.9 1141.6,92.9" fill="#9cc7ea" opacity="0.61"/>
<polygon points="1179.8,57.5 1247.4,59.1 1196.0,95.9" fill="#f4f9ff" opacity="0.79"/>
<polygon points="1247.4,59.1 1249.2,91.2 1196.0,95.9" fill="#cfe6fb" opacity="0.64"/>
<polygon points="1247.4,59.1 1301.9,55.0 1249.2,91.2" fill="#cfe6fb" opacity="0.81"/>
<polygon points="1301.9,55.0 1279.2,93.7 1249.2,91.2" fill="#cfe6fb" opacity="0.84"/>
<polygon points="1301.9,55.0 1341.8,62.3 1279.2,93.7" fill="#cfe6fb" opacity="0.6"/>
<polygon points="1341.8,62.3 1337.3,87.0 1279.2,93.7" fill="#cfe6fb" opacity="0.75"/>
<polygon points="1341.8,62.3 1410.4,59.3 1404.4,90.4" fill="#cfe6fb" opacity="0.58"/>
<polygon points="1341.8,62.3 1404.4,90.4 1337.3,87.0" fill="#eaf4ff" opacity="0.73"/>
</svg>